<svg width="280" height="46" viewBox="0 0 280 46" fill="none" xmlns="http://www.w3.org/2000/svg">
<path d="M11.672 45C7.68267 45 4.76 44.072 2.904 42.216C1.048 40.36 0.12 37.4373 0.12 33.448V26.28C0.12 22.2907 1.048 19.3787 2.904 17.544C4.76 15.688 7.68267 14.76 11.672 14.76H25.08V2.28C25.08 1.17066 25.6453 0.615997 26.776 0.615997C27.8853 0.615997 28.44 1.17066 28.44 2.28V43.304C28.44 44.4347 27.8853 45 26.776 45C25.6453 45 25.08 44.4347 25.08 43.304V40.552C24.1627 42.024 22.8187 43.1333 21.048 43.88C19.2773 44.6267 16.9627 45 14.104 45H11.672ZM11.672 41.64H14.104C17.432 41.64 20.088 41.1173 22.072 40.072C24.0773 39.0053 25.08 37.416 25.08 35.304V18.12H11.672C8.62133 18.12 6.488 18.728 5.272 19.944C4.07733 21.1387 3.48 23.2507 3.48 26.28V33.448C3.48 36.4987 4.07733 38.632 5.272 39.848C6.488 41.0427 8.62133 41.64 11.672 41.64ZM42.355 31.176V33.512C42.355 36.52 42.9523 38.632 44.147 39.848C45.363 41.0427 47.4963 41.64 50.547 41.64H55.795C58.483 41.64 60.435 41.2987 61.651 40.616C62.8883 39.912 63.6243 38.7067 63.859 37C63.9443 36.4667 64.115 36.0613 64.371 35.784C64.6483 35.5067 65.0643 35.368 65.619 35.368C66.1737 35.368 66.5897 35.528 66.867 35.848C67.1657 36.1467 67.283 36.5733 67.219 37.128C66.9417 39.816 65.8643 41.8 63.987 43.08C62.1097 44.36 59.379 45 55.795 45H50.547C46.5577 45 43.635 44.0827 41.779 42.248C39.923 40.392 38.995 37.48 38.995 33.512V26.28C38.995 22.248 39.923 19.3147 41.779 17.48C43.635 15.624 46.5577 14.7173 50.547 14.76H55.795C59.7843 14.76 62.6963 15.688 64.531 17.544C66.387 19.3787 67.315 22.2907 67.315 26.28V29.48C67.315 30.6107 66.7603 31.176 65.651 31.176H42.355ZM50.547 18.12C47.4963 18.0773 45.363 18.664 44.147 19.88C42.9523 21.0747 42.355 23.208 42.355 26.28V27.816H63.955V26.28C63.955 23.2293 63.3577 21.1067 62.163 19.912C60.9683 18.7173 58.8457 18.12 55.795 18.12H50.547ZM89.1095 45C85.1202 45 82.1975 44.072 80.3415 42.216C78.4855 40.36 77.5575 37.4373 77.5575 33.448V26.216C77.5575 22.2267 78.4748 19.3147 80.3095 17.48C82.1655 15.624 85.0988 14.7173 89.1095 14.76H94.3575C97.4935 14.76 99.8828 15.2933 101.526 16.36C103.19 17.4053 104.182 19.0587 104.502 21.32C104.566 21.896 104.438 22.3333 104.118 22.632C103.819 22.9307 103.392 23.08 102.838 23.08C102.326 23.08 101.942 22.952 101.686 22.696C101.43 22.4187 101.238 22.024 101.11 21.512C100.875 20.2747 100.246 19.4 99.2215 18.888C98.1975 18.376 96.5762 18.12 94.3575 18.12H89.1095C86.0588 18.0773 83.9255 18.6533 82.7095 19.848C81.5148 21.0213 80.9175 23.144 80.9175 26.216V33.448C80.9175 36.4987 81.5148 38.632 82.7095 39.848C83.9255 41.0427 86.0588 41.64 89.1095 41.64H94.3575C96.5762 41.64 98.1975 41.384 99.2215 40.872C100.246 40.36 100.875 39.4747 101.11 38.216C101.238 37.704 101.43 37.32 101.686 37.064C101.942 36.7867 102.326 36.648 102.838 36.648C103.392 36.648 103.819 36.808 104.118 37.128C104.438 37.4267 104.566 37.8533 104.502 38.408C104.182 40.6693 103.19 42.3333 101.526 43.4C99.8828 44.4667 97.4935 45 94.3575 45H89.1095ZM115.944 8.936C114.472 8.936 113.736 8.17866 113.736 6.664V5.224C113.736 3.752 114.472 3.016 115.944 3.016H117.384C118.813 3.016 119.528 3.752 119.528 5.224V6.664C119.528 8.17866 118.813 8.936 117.384 8.936H115.944ZM116.68 45C115.549 45 114.984 44.4347 114.984 43.304V16.424C114.984 15.3147 115.549 14.76 116.68 14.76C117.789 14.76 118.344 15.3147 118.344 16.424V43.304C118.344 44.4347 117.789 45 116.68 45ZM164.185 14.696C167.619 14.696 170.073 15.5707 171.545 17.32C173.038 19.0693 173.785 21.96 173.785 25.992V43.368C173.785 44.4773 173.23 45.032 172.121 45.032C170.99 45.032 170.425 44.4773 170.425 43.368V25.992C170.425 23.176 169.945 21.1493 168.985 19.912C168.025 18.6747 166.425 18.056 164.185 18.056H161.529C158.734 18.056 156.729 18.6747 155.513 19.912C154.318 21.1493 153.721 23.176 153.721 25.992V43.368C153.721 44.4773 153.166 45.032 152.057 45.032C150.926 45.032 150.361 44.4773 150.361 43.368V25.992C150.361 23.176 149.881 21.1493 148.921 19.912C147.961 18.6747 146.361 18.056 144.121 18.056H141.465C138.67 18.056 136.665 18.6747 135.449 19.912C134.254 21.1493 133.657 23.176 133.657 25.992V43.368C133.657 44.4773 133.102 45.032 131.993 45.032C130.862 45.032 130.297 44.4773 130.297 43.368V16.424C130.297 15.3147 130.862 14.76 131.993 14.76C133.102 14.76 133.657 15.3147 133.657 16.424V18.92C134.595 17.4053 135.705 16.328 136.985 15.688C138.286 15.0267 139.929 14.696 141.913 14.696H144.121C146.361 14.696 148.153 15.0907 149.497 15.88C150.862 16.648 151.939 17.9173 152.729 19.688C153.667 17.9173 154.819 16.648 156.185 15.88C157.55 15.0907 159.331 14.696 161.529 14.696H164.185ZM195.86 45C191.87 45 188.948 44.0827 187.092 42.248C185.236 40.392 184.308 37.48 184.308 33.512V26.28C184.308 22.248 185.236 19.3147 187.092 17.48C188.948 15.624 191.87 14.7173 195.86 14.76H201.108C205.097 14.76 208.009 15.688 209.844 17.544C211.7 19.3787 212.628 22.2907 212.628 26.28V33.448C212.628 37.4373 211.7 40.36 209.844 42.216C208.009 44.072 205.097 45 201.108 45H195.86ZM187.668 33.512C187.668 36.52 188.265 38.632 189.46 39.848C190.676 41.0427 192.809 41.64 195.86 41.64H201.108C204.158 41.64 206.281 41.0427 207.476 39.848C208.67 38.632 209.268 36.4987 209.268 33.448V26.28C209.268 23.2293 208.67 21.1067 207.476 19.912C206.281 18.7173 204.158 18.12 201.108 18.12H195.86C193.812 18.0987 192.19 18.344 190.996 18.856C189.801 19.368 188.948 20.2213 188.436 21.416C187.924 22.6107 187.668 24.232 187.668 26.28V33.512ZM234.422 45C230.433 45 227.51 44.0827 225.654 42.248C223.798 40.392 222.87 37.48 222.87 33.512V26.28C222.87 22.248 223.798 19.3147 225.654 17.48C227.51 15.624 230.433 14.7173 234.422 14.76H239.67C243.659 14.76 246.571 15.688 248.406 17.544C250.262 19.3787 251.19 22.2907 251.19 26.28V33.448C251.19 37.4373 250.262 40.36 248.406 42.216C246.571 44.072 243.659 45 239.67 45H234.422ZM226.23 33.512C226.23 36.52 226.827 38.632 228.022 39.848C229.238 41.0427 231.371 41.64 234.422 41.64H239.67C242.721 41.64 244.843 41.0427 246.038 39.848C247.233 38.632 247.83 36.4987 247.83 33.448V26.28C247.83 23.2293 247.233 21.1067 246.038 19.912C244.843 18.7173 242.721 18.12 239.67 18.12H234.422C232.374 18.0987 230.753 18.344 229.558 18.856C228.363 19.368 227.51 20.2213 226.998 21.416C226.486 22.6107 226.23 24.232 226.23 26.28V33.512ZM263.993 45C262.862 45 262.297 44.4347 262.297 43.304V16.424C262.297 15.3147 262.862 14.76 263.993 14.76C265.102 14.76 265.657 15.3147 265.657 16.424V21.352C266.766 19.2187 268.366 17.5867 270.457 16.456C272.569 15.3253 275.065 14.76 277.945 14.76C279.075 14.76 279.641 15.3147 279.641 16.424C279.641 17.5547 279.075 18.12 277.945 18.12C274.147 18.12 271.203 18.984 269.113 20.712C267.022 22.4187 265.87 24.8613 265.657 28.04V43.304C265.657 44.4347 265.102 45 263.993 45Z" fill="black"/>
</svg>
